<svg width="12" height="16" viewBox="0 0 12 16" fill="none" xmlns="http://www.w3.org/2000/svg">
<path d="M10.0002 6.16659C10.0002 3.95745 8.2093 2.16659 6.00016 2.16659C3.79102 2.16659 2.00016 3.95745 2.00016 6.16659V11.4999H10.0002V6.16659ZM11.3335 11.9444L11.6002 12.2999C11.7106 12.4472 11.6808 12.6561 11.5335 12.7666C11.4758 12.8099 11.4056 12.8333 11.3335 12.8333H0.666829C0.482736 12.8333 0.333496 12.684 0.333496 12.4999C0.333496 12.4278 0.356889 12.3576 0.400163 12.2999L0.666829 11.9444V6.16659C0.666829 3.22107 3.05464 0.833252 6.00016 0.833252C8.9457 0.833252 11.3335 3.22107 11.3335 6.16659V11.9444ZM4.3335 13.4999H7.66683C7.66683 14.4204 6.92063 15.1666 6.00016 15.1666C5.0797 15.1666 4.3335 14.4204 4.3335 13.4999Z" fill="black"/>
</svg>
