<svg width="22" height="22" viewBox="0 0 22 22" fill="inherit" xmlns="http://www.w3.org/2000/svg">
<path d="M11.7472 5.44012L16.9972 10.6901C17.0379 10.7308 17.0701 10.779 17.0921 10.8321C17.1142 10.8852 17.1255 10.9422 17.1255 10.9997C17.1255 11.0571 17.1142 11.1141 17.0921 11.1672C17.0701 11.2203 17.0379 11.2686 16.9972 11.3092L11.7472 16.5592C11.686 16.6204 11.608 16.6622 11.5231 16.6791C11.4382 16.696 11.3502 16.6873 11.2702 16.6542C11.1902 16.621 11.1218 16.5649 11.0738 16.4929C11.0257 16.4209 11.0001 16.3362 11.0001 16.2497V14.0622H6.62514C6.39308 14.0622 6.17052 13.97 6.00643 13.8059C5.84233 13.6418 5.75014 13.4192 5.75014 13.1872V8.81216C5.75014 8.58009 5.84233 8.35753 6.00643 8.19344C6.17052 8.02934 6.39308 7.93716 6.62514 7.93716H11.0001V5.74966C11.0001 5.66308 11.0257 5.57842 11.0738 5.50641C11.1218 5.4344 11.1902 5.37827 11.2702 5.34513C11.3502 5.31199 11.4382 5.30333 11.5231 5.32024C11.608 5.33715 11.686 5.37887 11.7472 5.44012ZM11.8751 8.37466C11.8751 8.49069 11.8291 8.60197 11.747 8.68402C11.665 8.76606 11.5537 8.81216 11.4376 8.81216H6.62514V13.1872H11.4376C11.5537 13.1872 11.665 13.2332 11.747 13.3153C11.8291 13.3973 11.8751 13.5086 11.8751 13.6247V15.1936L16.0691 10.9997L11.8751 6.80567V8.37466Z"/>
</svg>
