<svg width="22" height="22" viewBox="0 0 22 22" fill="inherit" xmlns="http://www.w3.org/2000/svg">
<path d="M10.2528 5.44012L5.00282 10.6901C4.96215 10.7308 4.92988 10.779 4.90786 10.8321C4.88584 10.8852 4.87451 10.9422 4.87451 10.9997C4.87451 11.0571 4.88584 11.1141 4.90786 11.1672C4.92988 11.2203 4.96215 11.2686 5.00282 11.3092L10.2528 16.5592C10.314 16.6204 10.392 16.6622 10.4769 16.6791C10.5618 16.696 10.6498 16.6873 10.7298 16.6542C10.8098 16.621 10.8782 16.5649 10.9262 16.4929C10.9743 16.4209 10.9999 16.3362 10.9999 16.2497V14.0622H15.3749C15.6069 14.0622 15.8295 13.97 15.9936 13.8059C16.1577 13.6418 16.2499 13.4192 16.2499 13.1872V8.81216C16.2499 8.58009 16.1577 8.35753 15.9936 8.19344C15.8295 8.02934 15.6069 7.93716 15.3749 7.93716H10.9999V5.74966C10.9999 5.66308 10.9743 5.57842 10.9262 5.50641C10.8782 5.4344 10.8098 5.37827 10.7298 5.34513C10.6498 5.31199 10.5618 5.30333 10.4769 5.32024C10.392 5.33715 10.314 5.37887 10.2528 5.44012ZM10.1249 8.37466C10.1249 8.49069 10.1709 8.60197 10.253 8.68402C10.335 8.76606 10.4463 8.81216 10.5624 8.81216H15.3749V13.1872H10.5624C10.4463 13.1872 10.335 13.2332 10.253 13.3153C10.1709 13.3973 10.1249 13.5086 10.1249 13.6247V15.1936L5.93087 10.9997L10.1249 6.80567V8.37466Z"/>
</svg>
