<svg width="114" height="39" viewBox="0 0 114 39" fill="none" xmlns="http://www.w3.org/2000/svg">
<path d="M25.7376 25.7646C23.1455 25.4773 22.8762 24.5272 22.8762 23.9748C22.8762 23.3561 23.4148 22.2844 25.5693 22.2844C27.7013 22.2844 28.3521 23.6433 28.3521 24.5935H31.0452C31.0004 22.2512 29.4406 19.9863 25.6142 19.9863C22.1244 19.9863 20.0596 21.8424 20.0596 24.0963C20.0596 26.5601 21.395 27.8969 25.5693 28.4383C28.0941 28.7697 28.7449 29.4879 28.7449 30.4712C28.7449 31.2777 28.0155 32.482 25.5693 32.482C22.8762 32.482 22.3488 30.6258 22.3151 29.521H19.5547C19.5547 32.1947 21.4735 34.78 25.5693 34.78C29.4967 34.78 31.5839 32.6808 31.5839 30.2944C31.5839 27.0241 29.1825 26.1623 25.7376 25.7646Z" fill="#0C3960"/>
<path d="M39.5398 23.6102C38.081 23.577 36.7345 24.3504 36.05 25.6209C36.0276 25.6651 36.0051 25.6983 35.9827 25.7314V23.7648H33.312V38.5696H35.9827V32.6477C36.0051 32.6919 36.0276 32.725 36.05 32.7471C36.7233 34.0287 38.0698 34.8242 39.5398 34.78C42.4012 34.78 44.3425 32.3162 44.3425 29.1895C44.3425 26.0629 42.4012 23.6102 39.5398 23.6102ZM38.9114 32.4157C37.1609 32.4157 35.9827 30.9352 35.9827 29.2116C35.9827 27.4881 37.1497 26.0076 38.9114 26.0076C40.7966 26.0076 41.6718 27.4881 41.6718 29.2116C41.6718 30.9241 40.7966 32.4157 38.9114 32.4157Z" fill="#0C3960"/>
<path d="M51.0751 23.6101C47.7199 23.6101 45.5767 25.8087 45.5767 29.2005C45.5767 32.4267 47.5404 34.791 51.1087 34.791C54.0487 34.791 55.5972 33.0785 56.0797 30.8467H53.3642C53.1286 31.8632 52.186 32.5592 51.1312 32.4929C49.5939 32.5813 48.281 31.4323 48.1912 29.9297C48.1912 29.9076 48.1912 29.8855 48.1912 29.8634H56.2144C56.2593 29.5983 56.2817 29.3331 56.2817 29.0569C56.2705 25.1127 53.6223 23.6101 51.0751 23.6101ZM48.2922 28.0515C48.4493 26.6484 49.7285 25.6209 51.1536 25.7424C52.4328 25.6651 53.5213 26.6263 53.5886 27.8858C53.5886 27.941 53.5886 27.9963 53.5886 28.0515H48.2922Z" fill="#0C3960"/>
<path d="M62.992 25.9965C64.1927 25.8861 65.2811 26.7147 65.4831 27.8858H68.1201C67.9294 25.6651 66.0891 23.6101 63.0032 23.6101C59.5808 23.6101 57.4263 25.9744 57.4263 29.2005C57.4263 32.4267 59.6369 34.791 63.0032 34.791C66.1115 34.791 67.9294 32.736 68.1201 30.5153H65.4831C65.2924 31.6975 64.2039 32.515 62.992 32.4046C61.1517 32.4046 60.0857 31.0898 60.0857 29.2005C60.0857 27.3113 61.1629 25.9965 62.992 25.9965Z" fill="#0C3960"/>
<path d="M73.024 31.0347V26.074H76.0313V23.7649H73.024V20.804H70.3533V23.7649H68.3447V26.0629H70.3533V31.2888C70.3533 33.8962 71.3969 34.6254 73.6075 34.6254H76.0313V32.3163H74.1686C73.0352 32.3273 73.024 32.2279 73.024 31.0347Z" fill="#0C3960"/>
<path d="M80.5984 25.9082V23.7758H77.9277V34.6363H80.5984V29.9297C80.5984 27.1787 81.4961 26.0849 84.6044 26.2838V23.6101C81.9337 23.6101 81.2717 24.4166 80.5984 25.9082Z" fill="#0C3960"/>
<path d="M93.3682 28.1952C93.3682 30.7032 91.9431 32.4157 90.4058 32.4157C89.0031 32.4157 88.3635 31.7417 88.3635 29.289V23.7759H85.6929V30.1949C85.6929 33.2774 87.2863 34.8021 89.6652 34.8021C91.584 34.8021 92.7959 33.2553 93.3458 32.1947C93.357 32.1726 93.3682 32.1394 93.3794 32.1173V34.6364H96.0501V23.7759H93.3794L93.3682 28.1952Z" fill="#0C3960"/>
<path d="M110.559 23.6103C109.145 23.555 107.854 24.3836 107.338 25.6763L107.204 25.9636C107.204 25.9415 107.192 25.9304 107.192 25.9083C106.744 24.3726 105.722 23.6103 104.039 23.6103C102.311 23.6103 101.436 24.8256 100.953 25.9304V23.776H98.2827V34.6254H100.953V30.2061C100.953 27.7423 101.683 26.0519 103.209 25.9967C104.544 26.0409 104.858 26.748 104.802 29.1234V34.6365H107.473V30.2172C107.473 27.7534 108.202 26.063 109.728 26.0077C111.064 26.0519 111.378 26.759 111.322 29.1344V34.6475H113.992V28.2395C113.981 25.1349 112.938 23.6103 110.559 23.6103Z" fill="#0C3960"/>
<path d="M13.0464 7.98786C13.0464 4.16515 11.0041 0.751221 5.50573 0.751221H0.00732422V15.2245H5.50573C10.8807 15.2355 13.0464 11.8216 13.0464 7.98786ZM2.85752 3.22604H5.81993C8.78234 3.22604 10.2074 5.56828 10.2074 7.99891C10.2074 10.4295 8.79356 12.7607 5.81993 12.7607H2.85752V3.22604Z" fill="#0C3960"/>
<path d="M17.4563 0.419678H14.7856V3.04917H17.4563V0.419678Z" fill="#0C3960"/>
<path d="M17.4563 4.375H14.7856V15.2355H17.4563V4.375Z" fill="#0C3960"/>
<path d="M29.0479 11.8436C29.0479 9.66709 27.1066 8.79427 24.4135 8.52912C22.2591 8.3192 22.0346 7.88831 22.0346 7.38009C22.0346 6.76139 22.4947 6.26421 24.0208 6.26421C25.5693 6.26421 26.0294 7.02655 26.0855 7.70049H28.7225C28.5766 5.72285 26.9832 4.20923 24.0881 4.20923C20.9574 4.20923 19.364 5.75599 19.364 7.52372C19.364 8.73903 19.8016 10.4626 23.1904 10.8714C25.3 11.1144 26.3885 11.2359 26.3885 12.0425C26.3885 12.7606 25.8274 13.3351 24.1106 13.3351C22.1693 13.3351 21.6868 12.3739 21.6643 11.5674H19.0273C19.1283 13.8875 20.8227 15.3901 24.0208 15.3901C27.275 15.4012 29.0479 14.0975 29.0479 11.8436Z" fill="#0C3960"/>
<path d="M37.2954 12.9265H35.4327C34.2994 12.9265 34.2881 12.827 34.2881 11.6338V6.67312H37.2954V4.36402H34.2881V1.40308H31.6175V4.36402H29.6089V6.67312H31.6175V11.899C31.6175 14.5064 32.6611 15.2356 34.8717 15.2356H37.2954V12.9265Z" fill="#0C3960"/>
<path d="M41.8738 10.5179C41.8738 7.76684 42.7715 6.67306 45.8798 6.87193V4.19824C43.1979 4.19824 42.5358 5.01582 41.8738 6.49629V4.36397H39.2031V15.2244H41.8738V10.5179Z" fill="#0C3960"/>
<path d="M50.1213 0.419678H47.4507V3.04917H50.1213V0.419678Z" fill="#0C3960"/>
<path d="M50.1213 4.375H47.4507V15.2355H50.1213V4.375Z" fill="#0C3960"/>
<path d="M63.385 9.79969C63.385 6.67302 61.4437 4.20925 58.5823 4.20925C57.1235 4.1761 55.777 4.94948 55.0925 6.22004C55.07 6.26423 55.0476 6.29738 55.0251 6.33052V0.419678H52.3545V15.2244H55.0251V13.2578C55.0476 13.302 55.07 13.3351 55.0925 13.3572C55.7658 14.6388 57.1123 15.4343 58.5823 15.3901C61.4437 15.4012 63.385 12.9264 63.385 9.79969ZM57.9539 13.0147C56.2034 13.0147 55.0251 11.5343 55.0251 9.81074C55.0251 8.0872 56.1922 6.60673 57.9539 6.60673C59.8391 6.60673 60.7143 8.0872 60.7143 9.81074C60.7143 11.5343 59.8391 13.0147 57.9539 13.0147Z" fill="#0C3960"/>
<path d="M68.7487 15.4012C70.6675 15.4012 71.8794 13.8544 72.4293 12.7938C72.4405 12.7717 72.4517 12.7386 72.4629 12.7165V15.2355H75.1336V4.375H72.4629V8.79432C72.4629 11.3023 71.0378 13.0148 69.5005 13.0148C68.0979 13.0148 67.4583 12.3408 67.4583 9.8881V4.375H64.7876V10.7941C64.7876 13.8765 66.3698 15.4012 68.7487 15.4012Z" fill="#0C3960"/>
<path d="M84.0655 15.2356V12.9265H82.2027C81.0806 12.9265 81.0582 12.827 81.0582 11.6338V6.67312H84.0655V4.36402H81.0582V1.40308H78.3875V4.36402H76.3789V6.67312H78.3875V11.899C78.3875 14.5064 79.4311 15.2356 81.6417 15.2356H84.0655Z" fill="#0C3960"/>
<path d="M90.4954 15.4011C93.4354 15.4011 94.9839 13.6886 95.4665 11.4569H92.7509C92.5153 12.4733 91.5727 13.1693 90.5179 13.1031C88.9806 13.1914 87.6677 12.0424 87.5779 10.5398C87.5779 10.5177 87.5779 10.4957 87.5779 10.4736H95.6011C95.646 10.2084 95.6572 9.94324 95.6572 9.66703C95.6572 5.72278 93.009 4.22021 90.4506 4.22021C87.0842 4.22021 84.9521 6.41883 84.9521 9.81066C84.9634 13.0257 86.9271 15.39 90.4954 15.4011ZM90.5403 6.34149C91.8195 6.26415 92.908 7.22535 92.9866 8.48486C92.9866 8.5401 92.9866 8.59534 92.9866 8.65059H87.6789C87.836 7.24745 89.104 6.21996 90.5403 6.34149Z" fill="#0C3960"/>
<path d="M105.173 13.3572C105.184 13.3351 105.207 13.302 105.24 13.2578V15.2244H107.911V0.419678H105.24V6.33052C105.218 6.29738 105.195 6.25318 105.173 6.22004C104.522 4.92739 103.153 4.13191 101.683 4.20925C98.8217 4.20925 96.8804 6.67302 96.8804 9.79969C96.8804 12.9264 98.8217 15.3901 101.683 15.3901C103.142 15.3791 104.466 14.5947 105.173 13.3572ZM99.5623 9.79969C99.5623 8.0651 100.438 6.58463 102.323 6.58463C104.073 6.58463 105.251 8.0651 105.251 9.78864C105.251 11.5122 104.084 12.9926 102.323 12.9926C100.438 13.0147 99.5623 11.5343 99.5623 9.79969Z" fill="#0C3960"/>
<path d="M13.8994 25.433L12.7436 24.295V22.1074H9.92706V24.295L8.77127 25.433H7.14419L5.9884 24.295V22.1074H3.17187V24.8805H5.38245L6.53824 26.0185V27.6316L5.38245 28.7585H3.16064V31.5316H5.97718V29.3441L7.13297 28.2061H9.35477V26.0185L10.5106 24.8805H12.1376L13.2934 26.0185V28.2061H16.11V25.433H13.8994Z" fill="#0C3960"/>
<path d="M9.11917 19.0029H6.77393V21.312H9.11917V19.0029Z" fill="#0C3960"/>
<path d="M9.11917 32.3271H6.77393V34.6362H9.11917V32.3271Z" fill="#0C3960"/>
<path d="M2.36379 25.665H0.0185547V27.9741H2.36379V25.665Z" fill="#0C3960"/>
<path d="M12.5078 28.9905H10.1626V31.2996H12.5078V28.9905Z" fill="#0C3960"/>
</svg>
