<svg width="14" height="15" viewBox="0 0 14 15" fill="inherit" xmlns="http://www.w3.org/2000/svg">
<path d="M6.3334 8.83325V6.83325H7.66673V8.83325H11.0001C11.3683 8.83325 11.6667 9.13172 11.6667 9.49992V13.4999C11.6667 13.8681 11.3683 14.1666 11.0001 14.1666H3.0001C2.63191 14.1666 2.33343 13.8681 2.33343 13.4999V9.49992C2.33343 9.13172 2.63191 8.83325 3.0001 8.83325H6.3334ZM0.673828 5.39116C1.55621 2.74275 4.05517 0.833252 7.00007 0.833252C9.94507 0.833252 12.444 2.74275 13.3264 5.39116L12.0611 5.81291C11.3552 3.69418 9.35607 2.16659 7.00007 2.16659C4.64415 2.16659 2.64499 3.69418 1.93908 5.81291L0.673828 5.39116ZM3.20433 6.23465C3.73377 4.64561 5.23314 3.49992 7.00007 3.49992C8.76707 3.49992 10.2664 4.64561 10.7959 6.23465L9.5306 6.65639C9.17767 5.59705 8.17807 4.83325 7.00007 4.83325C5.82213 4.83325 4.82255 5.59705 4.46959 6.65639L3.20433 6.23465ZM3.66677 10.1666V12.8333H10.3334V10.1666H3.66677Z"/>
</svg>
